<?xml version="1.0" encoding="iso-8859-1"?>
<!-- Generator: Adobe Illustrator 16.0.0, SVG Export Plug-In . SVG Version: 6.00 Build 0)  -->
<!DOCTYPE svg PUBLIC "-//W3C//DTD SVG 1.1//EN" "http://www.w3.org/Graphics/SVG/1.1/DTD/svg11.dtd">
<svg version="1.1" id="Capa_1" xmlns="http://www.w3.org/2000/svg" xmlns:xlink="http://www.w3.org/1999/xlink" x="0px" y="0px"
	 width="592.875px" height="592.875px" viewBox="0 0 592.875 592.875" style="enable-background:new 0 0 592.875 592.875;"
	 xml:space="preserve">
<g>
	<g id="Layer_1_50_">
		<path d="M512.551,173.108c-19.125,0-36.977,6.375-49.727,17.85C424.574,68.559,0,74.934,0,208.809
			c0,98.175,61.2,182.326,147.9,216.75H48.45c-17.85,0-31.875,14.025-31.875,31.875S30.6,489.309,48.45,489.309h369.75
			c17.852,0,31.875-14.025,31.875-31.875s-15.299-31.875-31.875-31.875H317.475c59.926-22.95,107.1-70.125,131.326-128.775
			c14.023,20.4,38.25,33.15,65.023,33.15c43.352,0,79.051-35.701,79.051-79.05C592.875,207.534,555.9,173.108,512.551,173.108z
			 M233.325,231.759c-103.275,0-187.425-17.85-187.425-39.525c0-21.675,84.15-52.275,187.425-52.275s187.425,30.6,187.425,52.275
			C419.475,213.909,336.6,231.759,233.325,231.759z M512.551,291.684c-21.676,0-40.801-17.85-40.801-40.8s17.85-40.8,40.801-40.8
			c22.949,0,40.799,17.85,40.799,40.8S535.5,291.684,512.551,291.684z"/>
	</g>
</g>
<g>
</g>
<g>
</g>
<g>
</g>
<g>
</g>
<g>
</g>
<g>
</g>
<g>
</g>
<g>
</g>
<g>
</g>
<g>
</g>
<g>
</g>
<g>
</g>
<g>
</g>
<g>
</g>
<g>
</g>
</svg>
